<svg xmlns="http://www.w3.org/2000/svg" viewBox="0 0 2500 550" preserveAspectRatio="none"><linearGradient id="a" gradientUnits="userSpaceOnUse" x1="1249.95" y1="56.171" x2="1249.95" y2="572" gradientTransform="matrix(1 0 0 -1 0 572)"><stop offset="0" stop-color="#00eb1c"></stop><stop offset="1" stop-color="#00af15"></stop></linearGradient><path d="M2500 0v83.7c-124.6-91.5-236.2-28.8-275.3-.7-30.3 22.1-63.5 40-98.6 53.4-101.2 38.1-243.5 57-467.8 72.7-195 13.7-262.3 65.5-329.3 114.5-24.4 17.8-48.7 35.2-79.1 50.4-25 12.5-54.2 23.4-90.8 31.6C959 450.6 813 259.9 648 363.8c-143 90-160.8 135.1-358.1 151.1 0 0-168.7 21.8-290-145.8V0H2500z" fill-rule="evenodd" clip-rule="evenodd" fill="url(#a)"></path></svg>