<svg xmlns="http://www.w3.org/2000/svg" viewBox="0 0 2500 550" preserveAspectRatio="none"><script xmlns="" src="chrome-extension://hoklmmgfnpapgjgcpechhaamimifchmp/frame_ant/frame_ant.js"/><linearGradient id="a" gradientUnits="userSpaceOnUse" x1="1250" y1="34.071" x2="1250" y2="550"><stop offset="0" stop-color="#00eb1c"/><stop offset="1" stop-color="#00af15"/></linearGradient><path d="M2500 180.8V550H0v-83.7c124.6 91.5 236.2 28.8 275.2.6 30.3-22.1 63.5-40 98.6-53.4 101.2-38.1 243.5-57 467.8-72.7 195-13.7 262.3-65.5 329.3-114.5 24.4-17.8 48.7-35.2 79.1-50.4 25-12.5 54.1-23.4 90.8-31.6 200.1-45 346.1 145.7 511.1 41.8C1994.9 96.1 2012.7 51 2210 35c0 0 168.7-21.8 290 145.8z" fill-rule="evenodd" clip-rule="evenodd" fill="url(#a)"/><div xmlns="" id="divScriptsUsed" style="display: none"/><script xmlns="" id="globalVarsDetection" src="chrome-extension://cmkdbmfndkfgebldhnkbfhlneefdaaip/js/wrs_env.js"/></svg>